<svg xmlns="http://www.w3.org/2000/svg" viewBox="0 0 110 110"><defs><style>.cls-1{fill:none;}.cls-2{fill:#378e83;}</style></defs><title>Building</title><g id="Layer_2" data-name="Layer 2"><g id="Layer_1-2" data-name="Layer 1"><rect class="cls-1" width="110" height="110"/><path class="cls-2" d="M51,21.14H33.69v17H51ZM47.23,34.42H37.44V24.81h9.79Z"/><path class="cls-2" d="M78.63,21.14H61.34v17H78.63ZM74.88,34.42H65.09V24.81h9.79Z"/><path class="cls-2" d="M51,43.82H33.69v17H51ZM47.23,57.1H37.44V47.5h9.79Z"/><path class="cls-2" d="M78.63,43.82H61.34v17H78.63ZM74.88,57.1H65.09V47.5h9.79Z"/><path class="cls-2" d="M91,101.64V3.71H21.28v97.93H10.17v3.67h92v-3.67Zm-29.84,0H51.12V89.54H61.2Zm26.1,0H65V85.87H47.37v15.77H25V7.38H87.3Z"/></g></g></svg>