<svg xmlns="http://www.w3.org/2000/svg" viewBox="0 0 110 110"><defs><style>.cls-1{fill:none;}.cls-2{fill:#335157;}</style></defs><title>Document</title><g id="Layer_2" data-name="Layer 2"><g id="Layer_1-2" data-name="Layer 1"><rect class="cls-1" width="110" height="110"/><path class="cls-2" d="M15.92,57.21C30,56.56,35.41,59,35.41,55.05V33.4a2.05,2.05,0,0,0-2.17-2.17H15.92a2,2,0,0,0-2.16,2.17V55.05A2.16,2.16,0,0,0,15.92,57.21Zm2.17-21.65h13V52.88h-13Z"/><path class="cls-2" d="M33.24,18.24H63.56a2,2,0,0,0,2.16-2.17,2,2,0,0,0-2.16-2.16H33.24a2,2,0,0,0-2.16,2.16A2.17,2.17,0,0,0,33.24,18.24Z"/><path class="cls-2" d="M13.76,94a2,2,0,0,0,2.16,2.16H63.56a2.17,2.17,0,0,0,0-4.33H15.92A2.32,2.32,0,0,0,13.76,94Z"/><path class="cls-2" d="M106.22,18.24,93.87,5.9a2.09,2.09,0,0,0-3,0c-.21.21-9.31,9.52-9.09,9.31l-5.2,5V9.58a6.38,6.38,0,0,0-6.5-6.5H21.55L2.93,21.7v78.82A6.38,6.38,0,0,0,9.42,107H70.05a6.38,6.38,0,0,0,6.5-6.5V50.93L97.12,30.36l9.1-9.09C106.65,20.84,107.08,18.89,106.22,18.24Zm-23,1.51,9.1,9.1L49.7,71.72c-.22-.21-9.74-9.74-9.09-9.09L76.55,26.47ZM38.44,66.53c.22.21,7.8,7.79,7.36,7.36l-11,3.68ZM20.25,10.44v10h-10Zm52,44.83v45.25a2.05,2.05,0,0,1-2.17,2.17H9.42a2,2,0,0,1-2.16-2.17V24.73H22.42a2,2,0,0,0,2.16-2.16V7.41H70.05a2.05,2.05,0,0,1,2.17,2.17V24.52l-6.5,6.71H44.07a2.17,2.17,0,0,0,0,4.33H61.39l-6.49,6.5H44.07a2.17,2.17,0,0,0,0,4.33h6.5L34.33,62.63l.65.65-.87,2.6H15.92a2.17,2.17,0,0,0,0,4.33H32.59l-2.81,8.66H15.92a2.17,2.17,0,0,0,0,4.33H31.08c.43,0,.65-.22,1.08-.43l16.89-5.63.65.65ZM95.61,25.82l-9.1-9.1,6.06-6.06,9.1,9.09Z"/><path class="cls-2" d="M51.22,61.11a2.09,2.09,0,0,0,3,0L81.75,33.4a2.15,2.15,0,0,0-3-3l-27.5,27.5A2.35,2.35,0,0,0,51.22,61.11Z"/></g></g></svg>