<svg xmlns="http://www.w3.org/2000/svg" viewBox="0 0 110 110"><defs><style>.cls-1{fill:none;}.cls-2{fill:#378e83;}</style></defs><title>EvergreenFund</title><g id="Layer_2" data-name="Layer 2"><g id="Layer_1-2" data-name="Layer 1"><rect class="cls-1" width="110" height="110"/><path class="cls-2" d="M57.4,104.84V47.16a2.4,2.4,0,1,0-4.79,0v57.68a2.4,2.4,0,0,0,4.79,0Z"/><path class="cls-2" d="M90.55,57.56c.06.28.11.57.16.85s.11.73,0,.06l.06.51a18.25,18.25,0,0,1,.07,2.09c0,.34,0,.69-.06,1,0,.17,0,.34,0,.52-.06.6.08-.55,0,0a17.63,17.63,0,0,1-.44,2,17.19,17.19,0,0,1-.63,1.83c.23-.59,0,0,0,.07s-.15.33-.23.49c-.16.32-.33.63-.5.94a18.16,18.16,0,0,1-1.2,1.8c.36-.48,0,0-.08.09s-.24.28-.36.42-.5.55-.76.82A19.53,19.53,0,0,1,85,72.53c.47-.38,0,0-.1.06l-.44.32c-.3.2-.6.39-.91.57a17,17,0,0,1-1.9,1c.58-.26,0,0-.08,0l-.5.19c-.33.11-.67.22-1,.31a17.38,17.38,0,0,1-1.87.42c-.13,0-.73.1-.06,0l-.52,0c-.34,0-.69.06-1,.07a18.06,18.06,0,0,1-2.08,0L74,75.42c-.6-.06.55.09,0,0-.34-.06-.69-.12-1-.2l1.67,1.67c-.06-.28-.11-.56-.16-.85,0-.13-.11-.73,0-.05,0-.18,0-.35-.05-.52a18.08,18.08,0,0,1-.08-2.08c0-.35,0-.7.06-1,0-.18,0-.35,0-.52.07-.6-.08.54,0-.06a17.63,17.63,0,0,1,.44-2q.27-.93.63-1.83c-.23.59,0,0,0-.07l.23-.48c.16-.32.33-.64.5-.95a19.41,19.41,0,0,1,1.2-1.8c-.36.48,0,0,.08-.09l.36-.42c.24-.28.5-.55.76-.81a17.78,17.78,0,0,1,1.52-1.36c-.47.38,0,0,.1-.06s.29-.21.44-.31c.3-.21.61-.4.91-.58a20,20,0,0,1,1.9-1c-.57.26,0,0,.09,0s.33-.12.49-.18c.33-.12.67-.22,1-.32a17.56,17.56,0,0,1,1.88-.42c.12,0,.72-.1,0,0,.17,0,.34,0,.52-.06l1-.07a16.06,16.06,0,0,1,2.08.06l.52.05c.6.06-.55-.08,0,0,.35.05.69.12,1,.19a2.4,2.4,0,0,0,1.27-4.62A19.69,19.69,0,0,0,69.8,77.48c0,.23.09.46.14.69a2.35,2.35,0,0,0,1.67,1.67A19.68,19.68,0,0,0,95.3,57c0-.23-.09-.46-.14-.68a2.4,2.4,0,0,0-2.94-1.68A2.44,2.44,0,0,0,90.55,57.56Z"/><path class="cls-2" d="M70.55,75.84,58.09,87.05l-4.78,4.29a2.41,2.41,0,0,0,0,3.38,2.44,2.44,0,0,0,3.39,0L69.17,83.51l4.77-4.29a2.41,2.41,0,0,0,0-3.38,2.44,2.44,0,0,0-3.39,0Z"/><path class="cls-2" d="M14.85,44.67A19.68,19.68,0,0,0,37.72,68.35l.68-.13a2.35,2.35,0,0,0,1.67-1.67,20,20,0,0,0-5-18A19.92,19.92,0,0,0,17.2,42.86l-.68.13a2.4,2.4,0,0,0,1.27,4.62l.86-.17c.12,0,.72-.1.05,0l.52-.06a16.07,16.07,0,0,1,2.08-.07c.35,0,.7,0,1,.05l.52.06c.6.06-.54-.09.05,0a17.83,17.83,0,0,1,2.05.45,16.29,16.29,0,0,1,1.82.63c-.58-.24,0,0,.08,0l.48.23c.32.15.63.32.94.5a16.69,16.69,0,0,1,1.81,1.2c-.49-.37,0,0,.09.07l.42.36c.28.25.55.51.81.77a16.28,16.28,0,0,1,1.35,1.52l.07.09.31.45c.2.3.39.6.58.91a16.91,16.91,0,0,1,1,1.9c-.25-.58,0,0,0,.08l.18.5c.12.33.22.66.32,1,.17.61.31,1.24.42,1.87,0,.13.1.73,0,.05l.06.52c0,.35,0,.7.06,1a16.21,16.21,0,0,1,0,2.09c0,.17,0,.34-.05.51-.07.6.08-.54,0,.06,0,.34-.12.68-.19,1l1.67-1.68c-.28.07-.57.12-.86.17-.12,0-.72.1-.05,0-.17,0-.34,0-.52.06a18,18,0,0,1-2.08.08c-.35,0-.69,0-1-.06l-.52,0c-.6-.07.55.08-.05,0a16.32,16.32,0,0,1-2-.45,15.07,15.07,0,0,1-1.82-.63c.59.24,0,0-.08,0l-.48-.23c-.32-.16-.63-.33-.94-.51a15.57,15.57,0,0,1-1.8-1.19c.48.36,0,0-.09-.08l-.42-.36c-.28-.24-.55-.5-.82-.76A17.66,17.66,0,0,1,22.16,58c.37.47,0,0-.07-.1l-.31-.44c-.2-.3-.39-.61-.58-.92a16.91,16.91,0,0,1-1-1.9c.25.58,0,0,0-.08L20,54.11c-.12-.33-.22-.67-.32-1a16.83,16.83,0,0,1-.41-1.87c0-.13-.11-.72,0,0l-.06-.52c0-.35,0-.69-.06-1a16.05,16.05,0,0,1,.05-2.08c0-.18,0-.35.05-.52.07-.6-.08.54,0-.05.05-.35.12-.69.19-1A2.42,2.42,0,0,0,17.79,43,2.39,2.39,0,0,0,14.85,44.67Z"/><path class="cls-2" d="M36.07,67.6,48.54,78.81l4.77,4.29a2.44,2.44,0,0,0,3.39,0,2.41,2.41,0,0,0,0-3.38L44.23,68.51l-4.77-4.29a2.44,2.44,0,0,0-3.39,0,2.41,2.41,0,0,0,0,3.38Z"/><path class="cls-2" d="M37.08,107.23H72.44a2.39,2.39,0,0,0,0-4.78H37.08a2.39,2.39,0,1,0,0,4.78Z"/><path class="cls-2" d="M73.63,25.89c0,.74,0,1.48-.12,2.21l-.06.55c.08-.66,0,0,0,.08-.07.41-.15.83-.24,1.24A20.8,20.8,0,0,1,72.61,32c-.11.34-.23.67-.36,1,0,.11-.28.66,0,.08-.09.22-.19.43-.29.64a20.65,20.65,0,0,1-2.24,3.72c-.36.48.32-.4,0,.07-.11.13-.22.27-.34.4s-.45.52-.69.78A22.84,22.84,0,0,1,67,40.31l-.46.39c-.06,0-.6.46-.15.12-.32.24-.64.47-1,.69a20.59,20.59,0,0,1-2.23,1.3c-.35.19-.71.35-1.08.52.52-.23-.09,0-.17.06l-.56.22a22,22,0,0,1-2.52.73c-.4.09-.8.17-1.21.24-.08,0-.76.11-.18,0l-.62.07a21.33,21.33,0,0,1-2.65.08c-.39,0-.78,0-1.17-.07l-.58,0c-.1,0-.75-.1-.12,0a23.91,23.91,0,0,1-2.41-.49,22.24,22.24,0,0,1-2.14-.69l-.51-.21c.56.23,0,0-.11-.05-.39-.18-.78-.37-1.16-.57-.65-.34-1.27-.73-1.88-1.13-.31-.21-.6-.42-.9-.64.45.33-.08-.07-.14-.11l-.61-.52a22.2,22.2,0,0,1-1.7-1.66c-.27-.29-.52-.59-.77-.89-.06-.08-.45-.56-.08-.08L39.44,37c-.42-.59-.81-1.21-1.17-1.84-.18-.32-.35-.64-.52-1l-.24-.49c0-.11-.37-.86-.13-.27A21.79,21.79,0,0,1,36.08,29L36,28.4c-.1-.64.06.53,0-.12,0-.38-.08-.76-.1-1.14a20.74,20.74,0,0,1,0-2.23c0-.32,0-.64.07-1s.15-1.25,0-.48q.15-1,.39-2c.15-.61.33-1.21.53-1.8.1-.29.2-.58.31-.87l.18-.43c-.28.68,0,0,.06-.13a21.32,21.32,0,0,1,1.9-3.31c.17-.25.35-.49.54-.74-.45.59.17-.2.29-.34.42-.5.87-1,1.34-1.45s.89-.83,1.35-1.21l.36-.29c.42-.34-.44.33,0,0l.87-.61a20.59,20.59,0,0,1,3.35-1.84c.5-.22-.51.21,0,0l.43-.17.87-.3a19.66,19.66,0,0,1,2-.54l.93-.19.46-.08c.72-.11-.49.06.23,0A21,21,0,0,1,55.06,7c.63,0,1.27,0,1.9.11l.47,0c-.72-.08-.16,0,0,0,.36,0,.72.12,1.07.19a21.47,21.47,0,0,1,3.66,1.12L62,8.42l.41.18.68.33c.45.22.89.47,1.32.72s.85.53,1.26.81l.61.44-.13-.1.35.28a20.88,20.88,0,0,1,2.17,2c.34.36.66.74,1,1.13l.18.23c-.42-.54-.09-.12,0,0s.29.4.43.61a20.91,20.91,0,0,1,1.52,2.59c.11.22.22.45.32.68s.09.18.13.28c-.28-.64-.07-.15,0,0,.19.48.36.95.51,1.44a20.47,20.47,0,0,1,.72,3c0,.1,0,.2,0,.3.08.56-.07-.57,0,0,0,.26,0,.52.07.78,0,.59.07,1.17.08,1.76a2.39,2.39,0,0,0,4.78,0,24.09,24.09,0,0,0-5.67-15.37,23.47,23.47,0,0,0-13.6-7.89A23.69,23.69,0,0,0,32.08,19,23.67,23.67,0,0,0,49.51,49a24.32,24.32,0,0,0,10.77-.06,24,24,0,0,0,9.59-4.83,23.77,23.77,0,0,0,8.48-16.53c0-.55.06-1.11.06-1.66a2.39,2.39,0,0,0-4.78,0Z"/><path class="cls-2" d="M62.17,33.41H51.58a12,12,0,0,0,.73-4.07,12.33,12.33,0,0,0-.12-2.1h5.05a2.22,2.22,0,1,0,0-4.43H51.82c0-.49-.12-1-.12-1.48a4.18,4.18,0,0,1,3.94-4.68,3.65,3.65,0,0,1,2.84.74A3.82,3.82,0,0,1,60,20.34a2.14,2.14,0,0,0,.74,1.48,2.5,2.5,0,0,0,1.6.5,2.14,2.14,0,0,0,1.48-.74,2.51,2.51,0,0,0,.5-1.61,7.92,7.92,0,0,0-3.33-6,8.19,8.19,0,0,0-5.18-1.48H55a8.61,8.61,0,0,0-7.76,9.24,4.28,4.28,0,0,0,.12,1.23h-.74a2.22,2.22,0,0,0,0,4.44h1.11a12,12,0,0,1,.13,2.09,8.09,8.09,0,0,1-1.61,5.06,2.34,2.34,0,0,0,.62,3.08,2.13,2.13,0,0,0,1.23.37H62.17a2.19,2.19,0,0,0,2.22-2.1C64.27,34.39,63.4,33.41,62.17,33.41Z"/></g></g></svg>