<svg xmlns="http://www.w3.org/2000/svg" viewBox="0 0 110 110"><defs><style>.cls-1{fill:none;}.cls-2{fill:#335157;}</style></defs><title>Female</title><g id="Layer_2" data-name="Layer 2"><g id="Layer_1-2" data-name="Layer 1"><rect class="cls-1" width="110" height="110"/><path class="cls-2" d="M52.12,71V87H38.87a2.65,2.65,0,1,0,0,5.3H52.12v13.24a2.65,2.65,0,1,0,5.3,0V92.34H70.66a2.65,2.65,0,1,0,0-5.3H57.42V71m1.16-.11a34.44,34.44,0,1,0-6.46.11m5.3,0,1.16-.11M54.77,7.57A29.14,29.14,0,1,1,25.63,36.71,29.14,29.14,0,0,1,54.77,7.57Z"/></g></g></svg>