<svg xmlns="http://www.w3.org/2000/svg" viewBox="0 0 110 110"><defs><style>.cls-1{fill:none;}.cls-2{fill:#335157;}</style></defs><title>Graduate</title><g id="Layer_2" data-name="Layer 2"><g id="Layer_1-2" data-name="Layer 1"><rect class="cls-1" width="110" height="110"/><path class="cls-2" d="M55.15,66.45a2.66,2.66,0,0,1-1.29-.33L3.2,38.21a2.67,2.67,0,0,1,0-4.67l50.66-28a2.63,2.63,0,0,1,2.58,0l50.66,28a2.67,2.67,0,0,1,0,4.67L56.43,66.12A2.65,2.65,0,0,1,55.15,66.45ZM10,35.87,55.15,60.74l45.14-24.87L55.15,11Z"/><path class="cls-2" d="M20.49,60.75a2.66,2.66,0,0,1-2.67-2.66V46.2a2.67,2.67,0,0,1,5.33,0V58.09A2.66,2.66,0,0,1,20.49,60.75Z"/><path class="cls-2" d="M89.81,60.75a2.67,2.67,0,0,1-2.67-2.66V46.2a2.67,2.67,0,0,1,5.34,0V58.09A2.67,2.67,0,0,1,89.81,60.75Z"/><path class="cls-2" d="M55.15,85.08c-20.59,0-37.33-11.6-37.33-25.86a2.67,2.67,0,0,1,5.33,0c0,11.32,14.36,20.53,32,20.53s32-9.21,32-20.53a2.67,2.67,0,0,1,5.34,0C92.48,73.48,75.73,85.08,55.15,85.08Z"/><path class="cls-2" d="M30.35,51.57a2.67,2.67,0,0,1-1.25-5l24.65-13.1a2.67,2.67,0,0,1,2.51,4.71L31.6,51.25A2.58,2.58,0,0,1,30.35,51.57Z"/><path class="cls-2" d="M30,93.3a2.67,2.67,0,0,1-2.67-2.66V50.37a2.67,2.67,0,0,1,5.34,0V90.64A2.67,2.67,0,0,1,30,93.3Z"/><path class="cls-2" d="M35.42,106.23H24.48a2.66,2.66,0,0,1-2.66-2.66v-7.2a8.13,8.13,0,0,1,16.26,0v7.2A2.66,2.66,0,0,1,35.42,106.23Zm-8.27-5.33h5.6V96.37a2.8,2.8,0,1,0-5.6,0Z"/></g></g></svg>