<svg xmlns="http://www.w3.org/2000/svg" viewBox="0 0 110 110"><defs><style>.cls-1{fill:none;}.cls-2{fill:#335157;}</style></defs><title>Group</title><g id="Layer_2" data-name="Layer 2"><g id="Layer_1-2" data-name="Layer 1"><rect class="cls-1" width="110" height="110"/><path class="cls-2" d="M1.23,64.74a20.57,20.57,0,0,1,14-19.47A15,15,0,0,1,9.9,33.93a14.61,14.61,0,1,1,29.22,0,15,15,0,0,1-5.31,11.34,18.85,18.85,0,0,1,8,4.95,14.76,14.76,0,0,1,26.74,0,17.82,17.82,0,0,1,8-4.95L75.42,44.2a14.56,14.56,0,1,1,19.66,1.07,20.81,20.81,0,0,1,14,19.47h-4.6A16.17,16.17,0,0,0,88.35,48.63H83a16.09,16.09,0,0,0-13.28,7.08v.53a14.46,14.46,0,0,1-5.32,11.34,21,21,0,0,1,14,19.65h-4.6A16.21,16.21,0,0,0,57.72,70.94H52.4A16.21,16.21,0,0,0,36.29,87.23H31.86a20.81,20.81,0,0,1,14-19.65,14.49,14.49,0,0,1-5.31-11.34v-.53a16.17,16.17,0,0,0-13.46-7.08H21.94A16.21,16.21,0,0,0,5.65,64.74ZM55.06,46.15A10.19,10.19,0,1,0,65.33,56.24,10.2,10.2,0,0,0,55.06,46.15ZM85.69,23.66A10.25,10.25,0,0,0,75.6,33.93a9.65,9.65,0,0,0,3,7.09,9.38,9.38,0,0,0,7.08,3,10.19,10.19,0,1,0,0-20.37Zm-61.27,0A10.19,10.19,0,1,0,34.69,33.93,10.24,10.24,0,0,0,24.42,23.66Z"/></g></g></svg>