<svg xmlns="http://www.w3.org/2000/svg" viewBox="0 0 110 110"><defs><style>.cls-1{fill:none;}.cls-2{fill:#335157;}</style></defs><title>Payment</title><g id="Layer_2" data-name="Layer 2"><g id="Layer_1-2" data-name="Layer 1"><rect class="cls-1" width="110" height="110"/><path class="cls-2" d="M9.34,97.86a9.37,9.37,0,0,0,9.38,9.37H90a9.36,9.36,0,0,0,9.37-9.37V62.23A9.37,9.37,0,0,0,90,52.86H80.59V43.48H97.47a1.88,1.88,0,0,0,0-3.75H80.59V11.61a9.37,9.37,0,0,0-9.37-9.38h-30a9.38,9.38,0,0,0-9.38,9.38V39.73H17.78a8.44,8.44,0,0,0-8.44,8.44v.62a1.71,1.71,0,0,0,0,.32Zm86.25-15H82.3a10.79,10.79,0,0,0-.49-5.63H95.59Zm-60-71.25A5.63,5.63,0,0,1,41.22,6h30a5.63,5.63,0,0,1,5.62,5.63V52.86H35.59ZM17.78,43.48H31.84v9.38H17.78a4.69,4.69,0,0,1,0-9.38Zm-4.69,11.7a8.35,8.35,0,0,0,4.69,1.43H90a5.62,5.62,0,0,1,5.62,5.62V73.48h-15a2,2,0,0,0-.82.21A11.25,11.25,0,1,0,81,86.61H95.59V97.86A5.62,5.62,0,0,1,90,103.48H18.72a5.62,5.62,0,0,1-5.63-5.62h0ZM78.72,81a7.5,7.5,0,1,1-7.5-7.5A7.5,7.5,0,0,1,78.72,81Z"/><path class="cls-2" d="M62.91,37.61H52a12.14,12.14,0,0,0,.76-4.19,12.92,12.92,0,0,0-.12-2.15h5.19a2.28,2.28,0,1,0,0-4.56H52.27c0-.51-.13-1-.13-1.53a4.3,4.3,0,0,1,4.06-4.81,3.75,3.75,0,0,1,2.91.76,3.9,3.9,0,0,1,1.52,3,2.21,2.21,0,0,0,.76,1.52A2.57,2.57,0,0,0,63,26.2a2.21,2.21,0,0,0,1.52-.76,2.57,2.57,0,0,0,.51-1.65,8.18,8.18,0,0,0-3.42-6.21,8.45,8.45,0,0,0-5.33-1.52h-.76a8.86,8.86,0,0,0-8,9.5,4.22,4.22,0,0,0,.13,1.27h-.76a2.28,2.28,0,0,0,0,4.56h1.14a12.85,12.85,0,0,1,.13,2.16,8.34,8.34,0,0,1-1.65,5.2,2.4,2.4,0,0,0,.64,3.17,2.11,2.11,0,0,0,1.26.38H62.91a2.25,2.25,0,0,0,2.28-2.16C65.07,38.62,64.18,37.61,62.91,37.61Z"/></g></g></svg>