<svg xmlns="http://www.w3.org/2000/svg" viewBox="0 0 110.75 110.75"><defs><style>.cls-1{fill:none;}.cls-1,.cls-2{stroke:#fff;stroke-miterlimit:10;stroke-width:0.75px;}.cls-2,.cls-3{fill:#378e83;}</style></defs><title>Payment_1</title><g id="Layer_2" data-name="Layer 2"><g id="Layer_1-2" data-name="Layer 1"><rect class="cls-1" x="0.38" y="0.38" width="110" height="110"/><path class="cls-2" d="M107.29,70a9,9,0,0,0-4.5-5.71,9.25,9.25,0,0,0-7.25-.66L72.36,71a8,8,0,0,0-2.53-1.75l-17.47-7a24.34,24.34,0,0,0-15.27-1L25,64.38V62.51a2.84,2.84,0,0,0-2.85-2.85h-16a2.84,2.84,0,0,0-2.86,2.85v35.6A2.84,2.84,0,0,0,6.11,101h16A2.84,2.84,0,0,0,25,98.11V95.8l36.92,6.38a19,19,0,0,0,3.51.33A20.13,20.13,0,0,0,77.3,98.66L103.78,80A9.5,9.5,0,0,0,107.29,70Zm-88,25.38H8.85v-30H19.29Zm81.19-20L74,94.16a15.05,15.05,0,0,1-11.2,2.52L25,90.2v-20l13.52-3.51a18.73,18.73,0,0,1,11.75.77l17.47,6.92a2.41,2.41,0,0,1,1.1,1,1.63,1.63,0,0,1,0,1.43,1.87,1.87,0,0,1-2.09,1.1L46.21,74.6a2.78,2.78,0,1,0-.88,5.49l20.54,3.3a4.51,4.51,0,0,0,1.21.11A7.51,7.51,0,0,0,74,78.88a7,7,0,0,0,.55-3l22.74-7a3.28,3.28,0,0,1,2.86.33,3.48,3.48,0,0,1,1.76,2.19A3.85,3.85,0,0,1,100.48,75.37Z"/><path class="cls-2" d="M75,62A28.73,28.73,0,1,0,46.21,33.29,28.79,28.79,0,0,0,75,62Zm0-51.85A23.18,23.18,0,1,1,51.81,33.29,23.18,23.18,0,0,1,75,10.11Z"/><path class="cls-3" d="M82.2,39.88H71.3a12.36,12.36,0,0,0,.75-4.19,12.92,12.92,0,0,0-.12-2.15h5.2a2.28,2.28,0,1,0,0-4.56H71.55c0-.51-.13-1-.13-1.53a4.3,4.3,0,0,1,4.06-4.81,3.77,3.77,0,0,1,2.92.76,3.92,3.92,0,0,1,1.51,3A2.22,2.22,0,0,0,80.68,28a2.52,2.52,0,0,0,1.64.51,2.24,2.24,0,0,0,1.53-.76,2.56,2.56,0,0,0,.5-1.65,8.12,8.12,0,0,0-3.42-6.21,8.45,8.45,0,0,0-5.33-1.52h-.76a8.85,8.85,0,0,0-8,9.5A4.22,4.22,0,0,0,67,29.1h-.77a2.28,2.28,0,0,0,0,4.56h1.15a13.91,13.91,0,0,1,.12,2.16A8.27,8.27,0,0,1,65.84,41a2.4,2.4,0,0,0,.64,3.17,2.17,2.17,0,0,0,1.27.38H82.2a2.26,2.26,0,0,0,2.28-2.16C84.35,40.89,83.46,39.88,82.2,39.88Z"/></g></g></svg>