<svg xmlns="http://www.w3.org/2000/svg" viewBox="0 0 110 110"><defs><style>.cls-1{fill:none;}.cls-2{fill:#378e83;}</style></defs><title>Rocket</title><g id="Layer_2" data-name="Layer 2"><g id="Layer_1-2" data-name="Layer 1"><rect class="cls-1" width="110" height="110"/><path class="cls-2" d="M29.3,53.58,16,39.16l1.52-1.39a37.29,37.29,0,0,1,28-9.71C65.21,8.37,81.16,4.35,100.3,4.35c1.94,0,3.88,0,6.1.14l1.94.14-.14,1.94c-1,22.74-5.82,39.66-28.42,58.8a37.06,37.06,0,0,1-11.93,27L66.32,93.8,53,79.37a17.42,17.42,0,0,1-23.3-2.21,17,17,0,0,1-4.57-12.62A17.28,17.28,0,0,1,29.3,53.58Zm48.67,8c20.25-17.47,25.1-32.45,26.21-53.39H100.3C82.41,8.23,67.43,12,49,30.14ZM21.53,39.44,34.71,53.72l-1.39,1.39a13.64,13.64,0,1,0,18.44,20.1l1.39-1.38L66.32,88.11a32.88,32.88,0,0,0,9.3-22.88L45.11,32.09A16.75,16.75,0,0,0,42.47,32,33.35,33.35,0,0,0,21.53,39.44Z"/><path class="cls-2" d="M86.57,23.63a12,12,0,0,1-.69,16.92,11.88,11.88,0,0,1-8.18,3.18A12.06,12.06,0,0,1,65.77,31.25a12.05,12.05,0,0,1,3.88-8.32,11.89,11.89,0,0,1,8.18-3.19A11.67,11.67,0,0,1,86.57,23.63ZM83.8,26.26a8,8,0,0,0-6-2.63,7.5,7.5,0,0,0-5.4,2.08,8,8,0,0,0-.56,11.37,8,8,0,0,0,6,2.63,8,8,0,0,0,6-13.45Z"/><path class="cls-2" d="M20.7,91.44A12.57,12.57,0,0,0,24,85.61c.14-1,.41-2.77-.69-3.88a3.66,3.66,0,0,0-2.5-.83c-2.22,0-5,1.39-7.21,3.47-2.91,3.19-5.69,10.26-7.21,14.56C10.58,97.4,17.51,94.77,20.7,91.44ZM11,81.73C13.91,78.82,17.65,77,21,77a7.21,7.21,0,0,1,5.27,2.08,7.76,7.76,0,0,1,1.8,7.48,15.3,15.3,0,0,1-4.44,7.77c-5.68,5.69-19.13,9.43-19.69,9.57l-3.33,1,1-3.33C1.56,100.73,5.72,87,11,81.73Z"/></g></g></svg>