<svg xmlns="http://www.w3.org/2000/svg" viewBox="0 0 110 110"><defs><style>.cls-1{fill:none;}.cls-2{fill:#335157;}</style></defs><title>Tick</title><g id="Layer_2" data-name="Layer 2"><g id="Layer_1-2" data-name="Layer 1"><rect class="cls-1" width="110" height="110"/><path class="cls-2" d="M56,102.73a47.5,47.5,0,1,1,47.5-47.5A47.55,47.55,0,0,1,56,102.73ZM56,12A43.28,43.28,0,1,0,99.28,55.23,43.33,43.33,0,0,0,56,12Z"/><path class="cls-2" d="M49.05,73.69a2.08,2.08,0,0,1-1.4-.53L30.57,58a2.11,2.11,0,0,1,2.8-3.16L48.92,68.64l29.34-31.2a2.11,2.11,0,1,1,3.07,2.89L50.59,73A2.12,2.12,0,0,1,49.05,73.69Z"/></g></g></svg>